<svg xmlns="http://www.w3.org/2000/svg" xmlns:xlink="http://www.w3.org/1999/xlink" height="800" width="1200" viewBox="-43.5 -72.5 377 435"><g transform="translate(-5.312 -5.306)"><defs><path d="M5.312 150.305c0 80.078 64.922 145.001 144.994 145.001 80.093 0 145.006-64.924 145.006-145.001S230.399 5.306 150.306 5.306C70.233 5.307 5.312 70.228 5.312 150.305" id="a"/></defs><clipPath id="b"><use height="100%" width="100%" overflow="visible" xlink:href="#a"/></clipPath><path d="M295.312 150.305c0 80.078-64.913 145.001-145.006 145.001-80.072 0-144.994-64.924-144.994-145.001S70.234 5.306 150.306 5.306c80.092.001 145.006 64.922 145.006 144.999" fill="#E32526" clip-path="url(#b)"/><path d="M109.494 121.304c3.279-.593 5.716 1.4 5.471 4.431-.245 3.027-3.111 5.985-6.384 6.57-3.258.581-5.716-1.412-5.456-4.445.249-3.032 3.096-5.956 6.369-6.556M74.235 143.04c2.838-10.566 6.273-21.355 9.672-29.411-6.849 8.978-14.188 20.401-20.801 31.806 3.849-.901 7.593-1.7 11.129-2.395m58.331-8.234c2.556-.465 8.297 3.01 5.551 6.23-2.854 3.313-6.074 2.652-11.129 4.762-2.865 1.188-5.063 3.753-8.201 8.268-3.99 5.854-5.818 11.588-6.146 15.897-.027 1.279-.129 1.918-.805 2.359-6.68 4.363-8.735 1.084-8.566-2.924.043-.946.374-2.442.964-4.284-5.14 7.707-9.69 11.605-12.666 12.14-3.989.721-6.24-2.048-5.811-7.171.196-2.33.897-5.069 2.202-8.521 1.368-3.505 3.524-8.297 5.52-12.223.509-1.023 1.001-2.005 1.415-2.884a390.4 390.4 0 00-12.381 2.626c-.068.166-.125.257-.187.267-2.149 10.038-2.318 13.822-3.476 22.574-.49 3.828.248 7.946-4.311 8.575-4.558.661-6.071-4.033-6.098-8.041-.059-4.081.695-8.985 3.579-20.856a317.403 317.403 0 00-14.696 4.114c-.07.111-.119.169-.119.169-8.227 15.06-16.347 33.694-17.69 39.72-1.071 4.831-3.254 6.311-6.466 4.911-3.206-1.405-5.073-4.635-3.907-8.236 2.113-6.464 8.548-20.973 14.28-31.386-.043.019 0-.125.135-.389-4.201 1.632-8.107 3.382-11.521 5.264-2.251 1.212-5.077.092-5.619-2.422-.388-1.783-1.24-5.304 3.121-7.218 6.588-2.88 13.715-5.319 20.834-7.379 15.119-25.437 33.911-51.608 39.315-51.13 2.339.202 1.969 2.73 4.032 5.021 2.036 2.281 2.333 3.678-.104 9.725-4.997 12.412-4.599 9.521-9.394 28.884 8.793-1.458 16.447-2.299 17.164-2.41 2.427-.345 6.604 1.308 4.396 6.048 0 0-2.314 4.075-3.227 5.82-1.65 2.887-3.791 7.226-5.083 10.158-.821 1.729-1.194 3.051-1.261 4.019-.067.629.169.985.677.894.673-.122 1.66-.849 2.85-2.081 1.157-1.353 5.064-4.558 12.047-16.323l1.843-3.812c.594-1.136 1.445-3.138 1.607-4.057.193-1.366.245-1.721 1.387-2.44 1.843-1.176 5.174-2.149 7.097-.894 1.81 1.197 1.341 3.365-.162 5.995 6.086-6.853 7.651-7.135 9.01-7.359m119.083 19.811c3.422-4.208 8.716-13.862 9.047-16.498.152-1.21-.196-1.688-1.147-1.565-1.176.156-3.815 2.312-6.327 5.387-3.679 4.415-8.633 13.32-9.021 16.254-.163 1.2.327 1.988 1.173 1.887 1.361-.187 3.713-2.229 6.275-5.465m20.504-6.966c1.487-2.361 4.635-1.589 3.793.582-.727 1.879-2.101 4.929-5.604 9.067-4.305 5.293-8.27 7.861-11.854 8.337-2.89.407-4.938-.831-5.438-3.42l-.168-.527c-.009-.456-.238-.683-.489-.641-.264.028-.457.225-.94.681-3.635 3.852-6.415 6.221-9.775 6.681-5.019.656-7.94-3.262-7.229-8.947-1.343 1.988-2.73 3.898-4.007 5.307-3.922 4.357-7.137 7.125-10.12 7.515-4.025.538-6.132-2.331-5.454-7.414.303-2.316 1.166-5.013 2.639-8.435 1.53-3.413 3.903-8.105 6.096-11.932 1.751-3.136 3.441-6.682 3.704-7.891.202-.952.306-1.136 1.05-1.62.935-.664 2.78-1.451 3.905-1.54 2.841-.214 6.611 1.84 4.117 6.099l-.94 1.62c-.135.333-1.841 3.416-2.822 5.098-1.81 2.834-4.127 7.058-5.582 9.917-.903 1.702-1.341 3.004-1.46 3.952-.099.634.119 1.012.615.938.695-.086 1.718-.769 2.961-1.969 1.275-1.334 2.054-2.219 4.896-5.979l1.031-1.301c.82-1.07 7.296-9.539 9.243-11.636 5.224-6.233 11.124-10.651 14.913-11.141 2.489-.343 4.497.793 5.465 3.092.683 1.877.818 2.006 2.483 2.725 2.663 1.056 3.536 1.95 3.331 3.307-.099.968-.462 1.718-2.155 4.379a140.473 140.473 0 00-3.441 6.242c-1.979 3.917-3.062 6.583-1.143 7.263.727.251 2.071-.44 3.749-2.217 1.856-1.967 3.17-3.915 4.63-6.192m-34.315-19.654c3.268-.582 6.123-3.527 6.381-6.567.235-3.034-2.211-5.009-5.463-4.424-3.275.588-6.141 3.53-6.38 6.574-.261 3.027 2.201 5.005 5.462 4.417m-49.691-14.374c-6.8 8.931-14.105 20.305-20.725 31.664a300.29 300.29 0 0111.068-2.308c2.858-10.53 6.265-21.311 9.657-29.356m1.708 27.451c1.953-.288 8.304-1.041 8.06 1.623-.374 4.293-1.991 4.229-7.671 5.447a275.52 275.52 0 01-3.416.741c-.087.288-.179.456-.245.466-2.14 10.038-2.309 13.834-3.484 22.574-.505 3.828.244 7.946-4.313 8.575-4.556.661-6.13-4.036-6.103-8.041.016-7.088 3.592-20.985 3.61-21.067-4.636 1.181-9.607 2.525-14.553 4.068-5.893 10.008-16.633 34.12-17.962 40.146-1.081 4.831-3.261 6.311-6.482 4.896-3.205-1.39-4.996-4.592-3.897-8.221 2.991-9.976 14.298-31.581 14.476-31.971-4.194 1.685-8.104 3.493-11.475 5.416-2.088 1.188-4.752.055-5.318-2.449-.374-1.801-1.204-5.309 2.875-7.173 6.542-2.982 13.655-5.476 20.758-7.524 15.095-25.389 33.815-51.438 39.209-50.957 2.351.199 1.985 2.728 4.04 5.018 2.045 2.275 2.333 3.678-.118 9.725-4.974 12.421-4.565 9.521-9.377 28.918.474-.066.923-.142 1.386-.21m7.211 35.186c3.729-.382 14.629-2.771 14.738-14.738.025-4.632-4.402-7.074-5.478-10.303-.694-1.995-.527-6.112 2.621-7.349 3.889-1.531 4.694 1.025 6.037 2.936.558.784 2.339.597 2.948-.04.849-.882 2.089-2.202 2.624-4.443.472-2.054-1.708-5.505-8.042-5.291-2.214.049-5.346.426-9.782 4.657-2.046 1.947-8.559 10.854-3.738 18.502 1.301 2.076 4.43 4.614 2.418 6.564-3.139 3.025-8.531-1.661-9.556-3.076-.462-.651-1.8-1.412-2.679-.122-.508.74-2.927 5.052-2.553 6.646 1.089 4.975 7.509 6.351 10.442 6.057" fill="#FFF" clip-path="url(#b)"/></g></svg>