<svg xmlns="http://www.w3.org/2000/svg" xmlns:xlink="http://www.w3.org/1999/xlink" width="1080" zoomAndPan="magnify" viewBox="0 0 810 412.499988" height="550" preserveAspectRatio="xMidYMid meet" version="1.0"><defs><clipPath id="536a818693"><path d="M 15 298 L 35 298 L 35 308.363281 L 15 308.363281 Z M 15 298 " clip-rule="nonzero"/></clipPath><clipPath id="a2a619dd67"><path d="M 775 298 L 795 298 L 795 308.363281 L 775 308.363281 Z M 775 298 " clip-rule="nonzero"/></clipPath></defs><path fill="#000000" d="M 68.703125 293.898438 C 68.703125 293.898438 67.332031 294.359375 65.28125 295.054688 C 63.230469 295.761719 60.503906 296.714844 57.785156 297.691406 C 55.070312 298.664062 52.371094 299.671875 50.359375 300.445312 C 49.359375 300.835938 48.527344 301.15625 47.949219 301.386719 C 47.386719 301.613281 47.066406 301.738281 47.066406 301.738281 L 44.007812 294.304688 C 44.007812 294.304688 44.363281 294.160156 44.984375 293.910156 C 45.589844 293.675781 46.449219 293.339844 47.484375 292.9375 C 49.550781 292.144531 52.308594 291.117188 55.070312 290.125 C 57.828125 289.132812 60.597656 288.167969 62.675781 287.449219 C 64.753906 286.742188 66.144531 286.273438 66.144531 286.273438 L 68.703125 293.898438 " fill-opacity="1" fill-rule="nonzero"/><path fill="#000000" d="M 111.011719 281.054688 C 111.011719 281.054688 110.660156 281.148438 110.050781 281.320312 C 109.441406 281.488281 108.566406 281.730469 107.523438 282.023438 C 105.429688 282.609375 102.636719 283.386719 99.859375 284.199219 C 97.070312 284.992188 94.296875 285.824219 92.214844 286.445312 C 90.136719 287.074219 88.75 287.488281 88.75 287.488281 L 86.414062 279.796875 C 86.414062 279.796875 87.816406 279.371094 89.914062 278.738281 C 92.019531 278.113281 94.820312 277.273438 97.632812 276.472656 C 100.4375 275.652344 103.253906 274.871094 105.367188 274.277344 C 106.421875 273.984375 107.300781 273.734375 107.917969 273.566406 C 108.535156 273.398438 108.886719 273.300781 108.886719 273.300781 L 111.011719 281.054688 " fill-opacity="1" fill-rule="nonzero"/><path fill="#000000" d="M 153.953125 270.347656 C 153.953125 270.347656 152.542969 270.664062 150.421875 271.140625 C 148.300781 271.636719 145.480469 272.296875 142.65625 272.960938 C 139.84375 273.644531 137.023438 274.324219 134.914062 274.839844 C 133.855469 275.09375 132.976562 275.308594 132.363281 275.46875 C 131.746094 275.625 131.394531 275.714844 131.394531 275.714844 L 129.445312 267.910156 C 129.445312 267.910156 129.800781 267.820312 130.421875 267.664062 C 131.039062 267.507812 131.925781 267.285156 132.992188 267.027344 C 135.121094 266.511719 137.960938 265.820312 140.800781 265.132812 C 143.644531 264.46875 146.488281 263.800781 148.625 263.300781 C 150.761719 262.820312 152.183594 262.5 152.183594 262.5 L 153.953125 270.347656 " fill-opacity="1" fill-rule="nonzero"/><path fill="#000000" d="M 197.335938 261.496094 C 197.335938 261.496094 195.910156 261.761719 193.769531 262.160156 C 191.632812 262.554688 188.78125 263.078125 185.9375 263.644531 C 183.09375 264.207031 180.246094 264.746094 178.113281 265.179688 C 175.984375 265.617188 174.566406 265.910156 174.566406 265.910156 L 172.957031 258.03125 C 172.957031 258.03125 174.386719 257.738281 176.53125 257.296875 C 178.679688 256.855469 181.546875 256.3125 184.414062 255.75 C 187.277344 255.179688 190.148438 254.648438 192.304688 254.253906 C 194.460938 253.855469 195.894531 253.585938 195.894531 253.585938 L 197.335938 261.496094 " fill-opacity="1" fill-rule="nonzero"/><path fill="#000000" d="M 241.046875 254.429688 C 241.046875 254.429688 239.613281 254.636719 237.460938 254.945312 C 236.382812 255.097656 235.128906 255.277344 233.78125 255.472656 C 232.441406 255.675781 231.007812 255.898438 229.574219 256.113281 C 226.707031 256.554688 223.84375 256.996094 221.691406 257.328125 C 219.546875 257.683594 218.117188 257.917969 218.117188 257.917969 L 216.828125 249.980469 C 216.828125 249.980469 218.265625 249.742188 220.429688 249.386719 C 222.59375 249.050781 225.480469 248.605469 228.367188 248.164062 C 229.8125 247.945312 231.253906 247.722656 232.605469 247.515625 C 233.960938 247.320312 235.226562 247.144531 236.3125 246.984375 C 238.480469 246.675781 239.925781 246.46875 239.925781 246.46875 L 241.046875 254.429688 " fill-opacity="1" fill-rule="nonzero"/><path fill="#000000" d="M 285.011719 249.078125 C 285.011719 249.078125 283.566406 249.226562 281.402344 249.441406 C 279.242188 249.679688 276.359375 250 273.476562 250.316406 C 272.035156 250.476562 270.59375 250.636719 269.242188 250.789062 C 267.894531 250.949219 266.632812 251.101562 265.554688 251.234375 C 263.394531 251.496094 261.957031 251.667969 261.957031 251.667969 L 260.980469 243.6875 C 260.980469 243.6875 262.429688 243.515625 264.605469 243.25 C 265.691406 243.113281 266.957031 242.960938 268.316406 242.796875 C 269.679688 242.648438 271.128906 242.488281 272.582031 242.324219 C 275.484375 242.007812 278.386719 241.6875 280.5625 241.445312 C 282.742188 241.226562 284.195312 241.078125 284.195312 241.078125 L 285.011719 249.078125 " fill-opacity="1" fill-rule="nonzero"/><path fill="#000000" d="M 329.144531 245.4375 C 329.144531 245.4375 327.699219 245.53125 325.527344 245.671875 C 324.441406 245.738281 323.175781 245.816406 321.820312 245.90625 C 320.464844 246.007812 319.019531 246.113281 317.574219 246.226562 C 314.683594 246.445312 311.789062 246.664062 309.621094 246.828125 C 308.535156 246.910156 307.632812 246.980469 307 247.039062 C 306.371094 247.097656 306.007812 247.125 306.007812 247.125 L 305.339844 239.113281 C 305.339844 239.113281 305.703125 239.082031 306.339844 239.027344 C 306.976562 238.964844 307.886719 238.894531 308.976562 238.8125 C 311.160156 238.648438 314.074219 238.425781 316.984375 238.203125 C 318.441406 238.09375 319.898438 237.988281 321.261719 237.886719 C 322.628906 237.800781 323.902344 237.71875 324.996094 237.644531 C 327.179688 237.503906 328.636719 237.414062 328.636719 237.414062 L 329.144531 245.4375 " fill-opacity="1" fill-rule="nonzero"/><path fill="#000000" d="M 373.390625 243.480469 C 373.390625 243.480469 371.9375 243.523438 369.765625 243.582031 C 367.589844 243.648438 364.691406 243.703125 361.792969 243.820312 C 356 244.054688 350.203125 244.28125 350.203125 244.28125 L 349.84375 236.25 C 349.84375 236.25 355.675781 236.015625 361.511719 235.785156 C 364.429688 235.664062 367.351562 235.613281 369.539062 235.542969 C 371.730469 235.488281 373.1875 235.445312 373.1875 235.445312 L 373.390625 243.480469 " fill-opacity="1" fill-rule="nonzero"/><path fill="#000000" d="M 417.671875 243.222656 C 417.671875 243.222656 416.222656 243.210938 414.046875 243.183594 C 411.875 243.167969 408.976562 243.113281 406.078125 243.113281 C 400.273438 243.128906 394.476562 243.136719 394.476562 243.136719 L 394.421875 235.09375 C 394.421875 235.09375 400.261719 235.085938 406.101562 235.074219 C 409.023438 235.070312 411.941406 235.125 414.128906 235.140625 C 416.320312 235.167969 417.777344 235.179688 417.777344 235.179688 L 417.671875 243.222656 " fill-opacity="1" fill-rule="nonzero"/><path fill="#000000" d="M 461.9375 244.660156 C 461.9375 244.660156 460.488281 244.582031 458.316406 244.472656 C 456.148438 244.363281 453.246094 244.203125 450.351562 244.109375 C 444.554688 243.890625 438.761719 243.675781 438.761719 243.675781 L 439.011719 235.640625 C 439.011719 235.640625 444.847656 235.859375 450.683594 236.074219 C 453.601562 236.167969 456.519531 236.332031 458.703125 236.441406 C 460.894531 236.554688 462.351562 236.628906 462.351562 236.628906 L 461.9375 244.660156 " fill-opacity="1" fill-rule="nonzero"/><path fill="#000000" d="M 506.113281 247.78125 C 506.113281 247.78125 504.671875 247.648438 502.503906 247.445312 C 500.339844 247.25 497.449219 247.035156 494.558594 246.804688 C 491.667969 246.574219 488.773438 246.34375 486.605469 246.175781 C 485.519531 246.082031 484.617188 246.03125 483.984375 245.988281 C 483.351562 245.945312 482.992188 245.925781 482.992188 245.925781 L 483.550781 237.898438 C 483.550781 237.898438 483.914062 237.925781 484.550781 237.96875 C 485.1875 238.007812 486.097656 238.0625 487.191406 238.15625 C 489.375 238.328125 492.285156 238.558594 495.191406 238.785156 C 498.105469 239.027344 501.015625 239.238281 503.199219 239.429688 C 505.378906 239.636719 506.832031 239.769531 506.832031 239.769531 L 506.113281 247.78125 " fill-opacity="1" fill-rule="nonzero"/><path fill="#000000" d="M 550.136719 252.585938 C 550.136719 252.585938 544.382812 251.882812 538.625 251.175781 C 537.183594 251 535.746094 250.824219 534.394531 250.660156 C 533.046875 250.515625 531.785156 250.378906 530.703125 250.261719 C 528.542969 250.027344 527.101562 249.871094 527.101562 249.871094 L 527.964844 241.875 C 527.964844 241.875 529.414062 242.035156 531.59375 242.269531 C 532.683594 242.386719 533.953125 242.527344 535.316406 242.671875 C 536.671875 242.835938 538.121094 243.015625 539.570312 243.1875 C 545.367188 243.902344 551.164062 244.613281 551.164062 244.613281 L 550.136719 252.585938 " fill-opacity="1" fill-rule="nonzero"/><path fill="#000000" d="M 593.9375 259.125 C 593.9375 259.125 592.511719 258.882812 590.367188 258.523438 C 588.222656 258.160156 585.363281 257.667969 582.496094 257.242188 C 576.761719 256.363281 571.03125 255.484375 571.03125 255.484375 L 572.199219 247.53125 C 572.199219 247.53125 577.972656 248.414062 583.746094 249.300781 C 586.636719 249.726562 589.515625 250.222656 591.671875 250.589844 C 593.832031 250.953125 595.273438 251.195312 595.273438 251.195312 L 593.9375 259.125 " fill-opacity="1" fill-rule="nonzero"/><path fill="#000000" d="M 637.464844 267.292969 C 637.464844 267.292969 631.78125 266.152344 626.09375 265.011719 C 623.25 264.441406 620.410156 263.851562 618.269531 263.476562 C 616.128906 263.082031 614.703125 262.816406 614.703125 262.816406 L 616.183594 254.910156 C 616.183594 254.910156 617.617188 255.179688 619.769531 255.578125 C 621.925781 255.957031 624.789062 256.550781 627.652344 257.125 C 633.378906 258.273438 639.101562 259.421875 639.101562 259.421875 L 637.464844 267.292969 " fill-opacity="1" fill-rule="nonzero"/><path fill="#000000" d="M 680.636719 277.195312 C 680.636719 277.195312 679.230469 276.84375 677.117188 276.3125 C 676.0625 276.050781 674.832031 275.730469 673.515625 275.414062 C 672.1875 275.101562 670.777344 274.773438 669.367188 274.441406 C 663.71875 273.121094 658.070312 271.796875 658.070312 271.796875 L 659.855469 263.957031 C 659.855469 263.957031 665.539062 265.285156 671.226562 266.621094 C 672.644531 266.949219 674.070312 267.285156 675.402344 267.597656 C 676.730469 267.917969 677.96875 268.238281 679.035156 268.503906 C 681.15625 269.035156 682.574219 269.390625 682.574219 269.390625 L 680.636719 277.195312 " fill-opacity="1" fill-rule="nonzero"/><path fill="#000000" d="M 723.398438 288.714844 C 723.398438 288.714844 717.820312 287.121094 712.246094 285.519531 C 711.546875 285.324219 710.851562 285.125 710.164062 284.925781 C 709.476562 284.742188 708.796875 284.5625 708.140625 284.382812 C 706.828125 284.03125 705.601562 283.703125 704.554688 283.417969 C 702.453125 282.855469 701.050781 282.484375 701.050781 282.484375 L 703.132812 274.710938 C 703.132812 274.710938 704.539062 275.09375 706.65625 275.660156 C 707.714844 275.945312 708.949219 276.277344 710.269531 276.628906 C 710.933594 276.808594 711.617188 276.992188 712.308594 277.179688 C 713 277.378906 713.699219 277.578125 714.402344 277.773438 C 720.019531 279.382812 725.632812 280.992188 725.632812 280.992188 L 723.398438 288.714844 " fill-opacity="1" fill-rule="nonzero"/><path fill="#000000" d="M 765.699219 301.835938 C 765.699219 301.835938 760.179688 300.054688 754.664062 298.277344 C 751.902344 297.382812 749.140625 296.496094 747.070312 295.824219 C 744.988281 295.191406 743.605469 294.769531 743.605469 294.769531 L 745.976562 287.085938 C 745.976562 287.085938 747.375 287.515625 749.46875 288.152344 C 751.554688 288.820312 754.335938 289.722656 757.113281 290.617188 C 762.671875 292.410156 768.230469 294.203125 768.230469 294.203125 L 765.699219 301.835938 " fill-opacity="1" fill-rule="nonzero"/><g clip-path="url(#536a818693)"><path fill="#000000" d="M 34.417969 303.421875 C 34.417969 306.050781 30.160156 308.179688 24.910156 308.179688 C 19.660156 308.179688 15.40625 306.050781 15.40625 303.421875 C 15.40625 300.792969 19.660156 298.664062 24.910156 298.664062 C 30.160156 298.664062 34.417969 300.792969 34.417969 303.421875 " fill-opacity="1" fill-rule="nonzero"/></g><path fill="#000000" d="M 24.910156 244.464844 C 18.214844 244.464844 12.789062 239.027344 12.789062 232.328125 C 12.789062 225.625 18.214844 220.191406 24.910156 220.191406 C 31.605469 220.191406 37.03125 225.625 37.03125 232.328125 C 37.03125 239.027344 31.605469 244.464844 24.910156 244.464844 Z M 48.398438 230.101562 C 47.328125 200.171875 2.492188 200.171875 1.421875 230.101562 C 0.46875 256.800781 24.910156 290.472656 24.910156 290.472656 C 24.910156 290.472656 49.351562 256.800781 48.398438 230.101562 " fill-opacity="1" fill-rule="nonzero"/><g clip-path="url(#a2a619dd67)"><path fill="#000000" d="M 794.550781 303.421875 C 794.550781 306.050781 790.296875 308.179688 785.050781 308.179688 C 779.796875 308.179688 775.542969 306.050781 775.542969 303.421875 C 775.542969 300.792969 779.796875 298.664062 785.050781 298.664062 C 790.296875 298.664062 794.550781 300.792969 794.550781 303.421875 " fill-opacity="1" fill-rule="nonzero"/></g><path fill="#000000" d="M 785.050781 244.464844 C 778.351562 244.464844 772.921875 239.027344 772.921875 232.328125 C 772.921875 225.625 778.351562 220.191406 785.050781 220.191406 C 791.742188 220.191406 797.171875 225.625 797.171875 232.328125 C 797.171875 239.027344 791.742188 244.464844 785.050781 244.464844 Z M 808.535156 230.101562 C 807.460938 200.171875 762.632812 200.171875 761.558594 230.101562 C 760.605469 256.800781 785.050781 290.472656 785.050781 290.472656 C 785.050781 290.472656 809.488281 256.800781 808.535156 230.101562 " fill-opacity="1" fill-rule="nonzero"/><path fill="#000000" d="M 422.59375 294.085938 L 430.988281 290.734375 C 434.25 289.429688 436.824219 286.820312 438.082031 283.53125 L 466.582031 209.085938 C 467.28125 207.261719 469.03125 206.0625 470.980469 206.066406 L 490.765625 206.132812 C 498.703125 206.183594 504.871094 203.773438 509.273438 201.09375 C 514.417969 197.953125 514.019531 190.355469 508.574219 187.773438 C 503.917969 185.5625 497.527344 183.816406 489.644531 184.695312 L 469.972656 186.835938 C 468.035156 187.046875 466.167969 186.039062 465.28125 184.292969 L 429.160156 113.242188 C 427.5625 110.105469 424.730469 107.777344 421.347656 106.820312 L 412.652344 104.367188 C 411.335938 103.996094 410.140625 105.253906 410.585938 106.546875 L 420.019531 134.242188 C 418.058594 134.789062 416.660156 136.617188 416.726562 138.730469 C 416.808594 141.265625 419.035156 143.230469 421.5625 143.09375 L 423.015625 143.015625 L 428.960938 160.464844 C 427.257812 161.167969 426.09375 162.890625 426.179688 164.832031 C 426.289062 167.335938 428.511719 169.269531 431.011719 169.140625 L 431.898438 169.09375 L 439.089844 190.191406 L 369.707031 197.738281 C 367.074219 198.019531 364.46875 197.019531 362.699219 195.046875 L 347.328125 177.859375 C 346.519531 176.960938 345.046875 176.308594 343.261719 176.070312 L 338.679688 175.457031 C 337.984375 175.363281 337.332031 175.75 337.550781 176.125 L 342.21875 184.152344 C 341.152344 184.339844 340.378906 184.910156 340.414062 185.539062 C 340.453125 186.273438 341.554688 186.808594 342.875 186.742188 L 343.695312 186.695312 L 346.636719 191.753906 C 345.714844 191.984375 345.078125 192.507812 345.105469 193.085938 C 345.148438 193.816406 346.246094 194.351562 347.570312 194.28125 L 348.089844 194.257812 L 352.953125 202.625 L 348.988281 211.453125 L 348.472656 211.480469 C 347.148438 211.550781 346.109375 212.203125 346.148438 212.929688 C 346.175781 213.507812 346.867188 213.960938 347.804688 214.09375 L 345.410156 219.433594 L 344.59375 219.476562 C 343.269531 219.546875 342.230469 220.191406 342.265625 220.925781 C 342.300781 221.558594 343.128906 222.042969 344.207031 222.121094 L 340.40625 230.589844 C 340.226562 230.988281 340.914062 231.300781 341.59375 231.136719 L 346.089844 230.046875 C 347.839844 229.621094 349.238281 228.820312 349.945312 227.839844 L 363.4375 209.136719 C 364.988281 206.992188 367.480469 205.722656 370.125 205.730469 L 439.917969 205.964844 L 434.972656 227.699219 L 434.082031 227.746094 C 431.582031 227.875 429.574219 230.035156 429.726562 232.535156 C 429.847656 234.480469 431.183594 236.0625 432.949219 236.589844 L 428.859375 254.5625 L 427.410156 254.640625 C 424.878906 254.773438 422.871094 256.957031 423.050781 259.480469 C 423.210938 261.59375 424.789062 263.269531 426.800781 263.609375 L 420.3125 292.132812 C 420.003906 293.46875 421.320312 294.597656 422.59375 294.085938 " fill-opacity="1" fill-rule="nonzero"/></svg>