<?xml version="1.0" encoding="utf-8"?>
<!-- Generator: Adobe Illustrator 19.2.1, SVG Export Plug-In . SVG Version: 6.00 Build 0)  -->
<svg version="1.1" id="layer" xmlns="http://www.w3.org/2000/svg" xmlns:xlink="http://www.w3.org/1999/xlink" x="0px" y="0px"
	viewBox="0 0 652 652" style="enable-background:new 0 0 652 652;" xml:space="preserve">
<style type="text/css">
	.st0{fill:#BA9653;}
	.st1{fill:#501C4B;}
</style>
<path class="st0" d="M184,325c-0.3-0.4-8.5-11.2-23.8-21.1c1.3-5.9,1.9-11.1,2.2-15.4c0.7-10.2-0.3-16.8-0.3-17.1l-0.2-1.3l-1.3-0.2
	c-0.3,0-6.9-1.1-17.1-0.3c-4.2,0.3-9.5,0.9-15.3,2.1c-9.9-15.3-20.7-23.3-21.1-23.7l-1.1-0.8l-1.1,0.8c-0.5,0.4-11.2,8.4-21.2,23.8
	c-5.9-1.3-11.1-1.9-15.4-2.2c-10.2-0.7-16.8,0.3-17.1,0.3l-1.4,0.2l-0.2,1.3c-0.1,0.3-1,6.9-0.3,17.1c0.3,4.3,0.9,9.5,2.2,15.4
	C36,313.8,28,324.5,27.7,325l-0.8,1.1l0.8,1.1c0.3,0.5,8.4,11.2,23.8,21.2c-1.2,5.8-1.9,11.1-2.2,15.3c-0.7,10.2,0.2,16.8,0.3,17.1
	l0.2,1.4l1.4,0.2c0.2,0,3.8,0.5,9.6,0.5c2.2,0,4.7-0.1,7.5-0.3c4.3-0.3,9.6-0.9,15.4-2.2c10,15.4,20.7,23.5,21.2,23.9l1.1,0.9
	l1.1-0.9c0.5-0.3,11.2-8.5,21.1-23.8c5.8,1.2,11,1.9,15.3,2.2c2.8,0.2,5.3,0.3,7.5,0.3c5.8,0,9.4-0.5,9.6-0.5l1.4-0.2l0.2-1.4
	c0-0.3,1-6.9,0.3-17.1c-0.3-4.3-0.9-9.5-2.2-15.3c15.4-9.9,23.6-20.7,23.9-21.1l0.9-1.1L184,325z M152.6,326.1
	c1.6-3.4,3-6.8,4.1-10.1c6,4.2,10,8.1,11.8,10c-1.8,1.9-5.8,5.9-11.9,10.1C155.6,332.9,154.2,329.5,152.6,326.1 M143.5,273.2
	c7.2-0.5,12.6-0.1,15,0.1c0.6,5.7,1.9,28.3-9.6,52c-1.5,3-3.1,6-4.8,8.7c-1.3,2-2.6,4-4,5.8l-0.4,0.6l0.1,0.8
	c1.4,8.9,0.7,16.3,0.3,19.1c-2.8,0.4-10.1,1.1-19.1-0.3l-0.8-0.1l-0.6,0.5c-1.5,1.1-3.2,2.3-4.9,3.4c-1.6-0.7-3.3-1.4-4.9-2.3
	c3.3-2,6.5-4.2,9.5-6.6c8.6,2.1,14.8,1.5,15.1,1.5l1.5-0.1l0.1-1.5c0-0.3,0.6-6.5-1.5-15c3.2-4,6-8.3,8.5-12.7
	c1.6-2.9,3.1-6,4.4-9.1c8.5-20.6,6.8-37.6,6.7-38.4l-0.1-1.5l-1.5-0.2c-0.7-0.1-17.2-1.7-37.4,6.4c-1.6-1-3.3-2-5-2.9
	C123,275.7,135.2,273.8,143.5,273.2 M143.5,341.5c0.6-0.8,1.2-1.6,1.7-2.4c5.4,14.7,5.5,27.4,5.4,31.7c-4.3,0.2-16.9,0-31.7-5.3
	c0.8-0.5,1.5-1,2.2-1.6c11.8,1.7,20.5,0,20.9,0l1.2-0.2l0.2-1.2C143.6,362,145.2,353.2,143.5,341.5 M80.5,337.9
	c-3-3.7-5.7-7.7-8.1-11.8c2.3-4.1,5-8.1,8-11.8l0.6-0.7l-0.2-0.9c-1.5-5.9-1.7-10.7-1.6-13.1c2.4,0,7.2,0.1,13.1,1.6l0.9,0.2
	l0.7-0.6c3.8-3,7.8-5.8,12-8.2c4.2,2.4,8.2,5.1,11.9,8.1l0.7,0.6l0.9-0.2c5.9-1.5,10.7-1.7,13-1.7c0,2.4-0.1,7.2-1.6,13.1l-0.2,0.9
	l0.6,0.7c3,3.7,5.7,7.7,8.1,11.9c-2.4,4.2-5.1,8.2-8.1,12l-0.6,0.7l0.2,0.9c1.5,5.8,1.7,10.7,1.7,13.1c-2.4,0-7.2-0.1-13-1.7
	l-0.9-0.2l-0.7,0.6c-3.7,3-7.7,5.7-11.8,8c-4.2-2.4-8.2-5.1-11.9-8.1l-0.7-0.6l-0.9,0.2c-5.9,1.5-10.7,1.7-13.1,1.6
	c-0.1-2.4,0.1-7.2,1.6-13.1l0.2-0.9L80.5,337.9z M143.5,289.8l-0.2-1.2l-1.2-0.2c-0.4-0.1-9.1-1.7-20.9,0c-0.7-0.5-1.5-1.1-2.3-1.6
	c14.8-5.4,27.3-5.4,31.6-5.3c0.2,4.3,0.1,16.9-5.3,31.6c-0.5-0.8-1.1-1.6-1.7-2.4C145.2,298.9,143.6,290.2,143.5,289.8 M105.7,279.2
	c-3.4-1.6-6.7-3-10-4.1c4.2-6,8.2-9.9,10.1-11.7c1.9,1.8,5.8,5.7,10,11.7C112.5,276.2,109.2,277.6,105.7,279.2 M105.8,251.8
	c2.9,2.3,10.8,9.4,18.4,20.7c-1.5,0.4-3.1,0.8-4.7,1.3c-6.4-9.3-12.3-14.2-12.5-14.4l-1.2-1l-1.2,1c-0.3,0.2-6.2,5.1-12.6,14.4
	c-1.6-0.5-3.2-0.9-4.7-1.3C95,261.2,103,254.2,105.8,251.8 M53,273.3c5.7-0.6,28.2-1.9,51.9,9.6c3.1,1.5,6.1,3.1,8.9,4.9
	c2,1.2,4,2.6,5.7,3.9l0.6,0.5l0.7-0.1c8.9-1.4,16.3-0.7,19.1-0.3c0.4,2.8,1.1,10.1-0.3,19.1l-0.1,0.8l0.5,0.6
	c1.2,1.6,2.3,3.4,3.4,5.1c-0.7,1.7-1.4,3.3-2.3,4.9c-2-3.3-4.2-6.6-6.6-9.6c2-8.6,1.5-14.8,1.5-15l-0.1-1.5l-1.6-0.2
	c-0.3,0-6.4-0.6-15,1.5c-4-3.1-8.2-6-12.6-8.4c-3-1.6-6.1-3.1-9.3-4.4c-20.6-8.5-37.6-6.8-38.3-6.7l-1.5,0.1l-0.2,1.5
	c-0.1,0.7-1.7,17.2,6.4,37.4c-1,1.7-2,3.3-2.9,5c-5.6-13-7.6-25.2-8.1-33.5C52.4,281.2,52.8,275.7,53,273.3 M67.9,310.7
	c-0.5,0.7-1,1.5-1.5,2.2c-5.4-14.8-5.4-27.4-5.3-31.6c4.3-0.2,16.8-0.1,31.6,5.3c-0.8,0.5-1.6,1.1-2.3,1.6c-11.8-1.7-20.6,0-21,0.1
	l-1.2,0.2l-0.3,1.2C67.9,290.2,66.2,298.9,67.9,310.7 M54.8,336.1c-6-4.2-10-8.1-11.7-10c1.8-1.9,5.7-5.8,11.7-10
	c1.1,3.3,2.5,6.6,4.1,10C57.3,329.5,55.9,332.9,54.8,336.1 M31.5,326.1c2.3-2.9,9.4-10.8,20.7-18.4c0.4,1.5,0.8,3.1,1.3,4.7
	c-9.3,6.4-14.2,12.3-14.4,12.5l-1,1.2l1,1.2c0.2,0.3,5.1,6.1,14.5,12.6c-0.5,1.6-0.9,3.2-1.3,4.7C41,337,33.9,329,31.5,326.1
	 M68,378.9c-7.2,0.5-12.6,0.2-15-0.1c-0.2-2.4-0.6-7.8-0.1-15c0.6-9,2.8-22.7,9.6-36.9c1.5-3,3.1-6.1,4.9-8.9c1.2-2,2.5-3.9,3.8-5.7
	l0.5-0.6l-0.1-0.8c-1.4-9-0.6-16.3-0.2-19.2c2.8-0.4,10.1-1.1,19.1,0.2l0.7,0.1l0.6-0.4c1.6-1.2,3.3-2.3,5-3.4
	c1.7,0.7,3.4,1.5,5.1,2.3c-3.4,2-6.7,4.3-9.8,6.7c-8.6-2-14.8-1.4-15.1-1.4l-1.5,0.2l-0.2,1.5c0,0.3-0.6,6.5,1.4,15.1
	c-3.1,3.9-5.9,8.1-8.3,12.5c-1.7,3-3.2,6.1-4.5,9.3c-8.4,20.6-6.9,37.6-6.8,38.3l0.2,1.5l1.5,0.1c0.2,0,1.7,0.2,4.2,0.2
	c6.3,0,18.9-0.9,33.3-6.6c1.6,1,3.2,1.9,4.8,2.7C88.6,376.4,76.3,378.3,68,378.9 M66.4,339.2c0.5,0.7,1,1.5,1.5,2.2
	c-1.7,11.8,0,20.6,0.1,21l0.3,1.2l1.2,0.2c0.4,0.1,9.2,1.8,21,0.1c0.8,0.5,1.5,1.1,2.3,1.6C78,370.9,65.3,371,61,370.9
	C60.9,366.6,61,354,66.4,339.2 M105.7,372.9c3.4,1.6,6.8,3,10.1,4.1c-4.2,6-8.1,10-10,11.8c-1.9-1.8-5.8-5.8-10.1-11.9
	C99,375.9,102.4,374.5,105.7,372.9 M105.8,400.4c-2.9-2.4-10.9-9.5-18.4-20.9c1.5-0.4,3.1-0.8,4.7-1.3c6.4,9.4,12.3,14.4,12.6,14.6
	l1.2,1l1.2-1c0.3-0.2,6.1-5.2,12.5-14.6c1.6,0.5,3.1,0.9,4.7,1.3C116.7,390.8,108.7,398,105.8,400.4 M158.5,378.8
	c-2.5,0.2-7.8,0.6-15,0.1c-9-0.6-22.8-2.8-36.9-9.7c-3-1.4-6-3.1-8.8-4.8c-2-1.2-3.9-2.6-5.8-3.9l-0.6-0.5l-0.8,0.1
	c-9,1.4-16.3,0.6-19.2,0.2c-0.4-2.8-1.2-10.2,0.2-19.2l0.1-0.8l-0.5-0.6c-1.1-1.6-2.2-3.2-3.3-4.9c0.7-1.7,1.5-3.4,2.3-5.1
	c2,3.4,4.2,6.6,6.7,9.6c-2,8.6-1.4,14.8-1.4,15.1l0.2,1.5l1.5,0.2c0.3,0,6.5,0.6,15.1-1.5c4,3.1,8.2,6,12.6,8.4
	c2.9,1.6,6,3.1,9.1,4.3c14.8,6.1,27.7,7,34.1,7c2.6,0,4.1-0.1,4.3-0.2l1.5-0.2l0.2-1.5c0.1-0.7,1.6-17.3-6.5-37.5
	c1-1.6,1.9-3.2,2.8-4.8c5.6,12.9,7.5,25.2,8.1,33.4C159.1,371,158.7,376.4,158.5,378.8 M159.2,344.5c-0.4-1.5-0.8-3.1-1.3-4.6
	c9.4-6.4,14.4-12.3,14.6-12.6l1-1.2l-1-1.2c-0.2-0.3-5.2-6.1-14.6-12.5c0.5-1.6,0.9-3.1,1.3-4.7c11.3,7.5,18.5,15.5,20.9,18.4
	C177.7,329,170.6,337,159.2,344.5"/>
<path class="st1" d="M228.9,375.3h-9.7v7.6h8.3v2.2H219c0,0,0.2,0.7,0.2,1.3v9.2h-2.4v-22.4h12.7L228.9,375.3z"/>
<path class="st1" d="M236.7,395.8c-2.5,0-3.7-1.3-3.7-4v-20.4h2.4v20.4c0,1.4,0.4,1.9,1.4,1.9h1.2v2.2H236.7z"/>
<path class="st1" d="M246.3,399.9c-0.9,2.3-2.2,3.1-5,3.1h-2.2v-2.2h2.2c1.9,0,2.3-0.4,2.9-2l1.1-2.9l-6.4-17.1h2.5l4.6,12.3
	c0.2,0.5,0.4,1.4,0.5,2.1c0.2-0.8,0.4-1.6,0.6-2.1l4.6-12.3h2.5L246.3,399.9z"/>
<path class="st1" d="M270.6,396c-2.5,0-4.4-0.9-4.4-4.6v-9.2c0-0.6,0.2-0.9,0.3-1.2h-3.1v-2.1h2.9v-5.7l2.4-0.7v6.4h6L274,381h-5.3
	v10.5c0,2,0.9,2.6,2.7,2.6c0.8,0,1.7-0.3,2.7-0.9l1.5,1.6C274.3,395.7,272.3,396,270.6,396"/>
<path class="st1" d="M289.6,395.6v-10.7c0-3.6-1.5-4.5-3.5-4.5c-1.4,0-2.4,0.4-3.9,1.5l-1.6,1.1v12.6h-2.4v-24.2h2.4v8.6l-0.2,1.1
	l1.5-1.1c1.6-1.1,2.9-1.7,4.3-1.7c3.4,0,5.9,1.8,5.9,6.4v10.8H289.6z"/>
<path class="st1" d="M298,387.9c0.1,4.1,1.3,6.1,5.2,6.1c2.4,0,3.9-0.8,4.7-2.4l2.1,0.8c-1.1,2.3-3,3.6-6.8,3.6
	c-5.3,0-7.7-2.7-7.7-8.8c0-5.6,1.9-8.8,7.8-8.8c6.2,0,7,4.1,7,8.8v0.7H298z M303.3,380.4c-3.3,0-5,1.3-5.2,5.5h9.7
	C307.8,382.5,307,380.4,303.3,380.4"/>
<path class="st1" d="M333.1,395.6v-10.7c0-3.6-1.5-4.5-3.5-4.5c-1.4,0-2.3,0.4-3.9,1.5l-1.6,1.1v12.6h-2.4v-16.7h1.9l0.5,2l1.2-0.8
	c1.6-1.1,2.9-1.7,4.3-1.7c3.4,0,5.9,1.8,5.9,6.4v10.8H333.1z"/>
<path class="st1" d="M341.6,387.9c0.1,4.1,1.3,6.1,5.2,6.1c2.4,0,3.9-0.8,4.7-2.4l2.1,0.8c-1.1,2.3-3.1,3.6-6.8,3.6
	c-5.3,0-7.7-2.7-7.7-8.8c0-5.6,1.9-8.8,7.8-8.8c6.2,0,7.1,4.1,7.1,8.8v0.7H341.6z M346.8,380.4c-3.2,0-5,1.3-5.2,5.5h9.7
	C351.3,382.5,350.5,380.4,346.8,380.4"/>
<path class="st1" d="M373.4,395.6H371l-3.4-11.1c-0.3-1.1-0.6-3.1-0.6-3.1s-0.2,2.1-0.5,3.1l-3.5,11.1h-2.4l-5.2-16.7h2.4l3.4,11.4
	c0.3,0.9,0.6,3.1,0.6,3.1s0.3-2.1,0.6-3.1l3.5-11.4h2.3l3.5,11.4c0.3,1,0.5,3.1,0.5,3.1s0.4-2.2,0.6-3.1l3.5-11.4h2.4L373.4,395.6z"
	/>
<path class="st1" d="M399.7,373.9c-0.6-0.1-1.1-0.2-1.5-0.3c-0.5-0.1-1-0.2-1.8-0.2c-1.8,0-3.4,0.9-3.4,3.6v1.8h5.7l-0.5,2.1H393
	v14.6h-2.4v-13.2c0-0.5,0.1-0.9,0.3-1.4H388v-2.1h2.6V377c0-3.8,2.4-5.7,5.8-5.7c1.6,0,2.3,0.2,3.8,0.4L399.7,373.9z"/>
<path class="st1" d="M402.7,387.9c0.1,4.1,1.3,6.1,5.2,6.1c2.4,0,3.9-0.8,4.7-2.4l2.1,0.8c-1.1,2.3-3.1,3.6-6.8,3.6
	c-5.3,0-7.8-2.7-7.8-8.8c0-5.6,1.9-8.8,7.8-8.8c6.2,0,7.1,4.1,7.1,8.8v0.7H402.7z M408,380.4c-3.3,0-5,1.3-5.2,5.5h9.7
	C412.5,382.5,411.7,380.4,408,380.4"/>
<path class="st1" d="M420.6,387.9c0.1,4.1,1.3,6.1,5.2,6.1c2.4,0,3.9-0.8,4.7-2.4l2.1,0.8c-1.1,2.3-3,3.6-6.8,3.6
	c-5.4,0-7.8-2.7-7.8-8.8c0-5.6,1.9-8.8,7.8-8.8c6.2,0,7.1,4.1,7.1,8.8v0.7H420.6z M425.8,380.4c-3.3,0-5,1.3-5.2,5.5h9.8
	C430.3,382.5,429.5,380.4,425.8,380.4"/>
<path class="st1" d="M440.2,395.8c-2.4,0-3.7-1.3-3.7-4v-20.4h2.4v20.4c0,1.4,0.4,1.9,1.4,1.9h1.2v2.2H440.2z"/>
<path class="st1" d="M446.7,374.3h-2.5l-0.2-0.3v-2.4l0.2-0.3h2.5l0.2,0.3v2.4L446.7,374.3z M444.2,378.9h2.4v16.7h-2.4V378.9z"/>
<path class="st1" d="M462.4,395.6v-10.7c0-3.6-1.5-4.5-3.5-4.5c-1.4,0-2.4,0.4-3.9,1.5l-1.6,1.1v12.6H451v-16.7h1.9l0.5,2l1.2-0.8
	c1.6-1.1,2.9-1.7,4.3-1.7c3.4,0,5.9,1.8,5.9,6.4v10.8H462.4z"/>
<path class="st1" d="M484,380.7h-1.2c-0.3,0-0.9,0-1.5-0.2c1,1.1,1.4,2.6,1.4,3.7c0,3.9-2.2,5.7-6.8,5.7c-0.8,0-1.2-0.1-1.9-0.2
	l-1.2-0.2c-1,0-1.4,0.6-1.4,1.3c0,0.6,0.4,1,1.2,1.1l6.9,1.2c3.6,0.6,4.4,2.5,4.4,4.6c0,4-3.5,5.2-8,5.2c-3.7,0-8-0.7-8-5.6
	c0-2,1-3.4,2.4-4.4c-0.6-0.5-1-1.1-1-2.2c0-1.1,0.6-1.8,1.7-2.4c-1.3-1.2-1.8-2.5-1.8-4.2c0-4.2,3.2-5.8,6.8-5.8
	c1.7,0,3.1,0.2,4.4,1l2.6-1h1.7L484,380.7z M479,395.2l-7.1-1.3c-1.1,0.7-1.6,2-1.6,3.5c0,2.8,1.9,3.7,5.5,3.7
	c4.1,0,5.5-1.3,5.5-3.3C481.2,396.3,480.6,395.5,479,395.2 M475.7,380.3c-2.7,0-4.4,1.1-4.4,3.9c0,3,1.9,3.7,4.4,3.7
	c2.7,0,4.4-0.8,4.4-3.7C480.1,381.7,478.6,380.3,475.7,380.3"/>
<path class="st1" d="M205.1,301h9.8c1.2,0,1.6,0.8,1.7,1c5.2,9.7,22.9,41.2,22.9,41.2s18-31.6,23.3-41.3c0.2-0.3,0.5-1,1.6-1h5
	c0.8,0,1.2,0.9,0.8,1.5c-6.1,10.7-23,40.1-26.6,46.5c-0.4,0.8-0.9,1.2-1.8,1.2h-9.3c-0.9,0-1.5-0.6-1.9-1.3
	c-3.6-6.3-20.4-35.6-26.5-46.2C204.1,302.2,203.7,301,205.1,301"/>
<path class="st1" d="M353,309.5c-2.6-1.4-10.4-5.5-22.3-5.5c-12.9,0-15.4,5.5-15.4,9.4c0,4.9,5.1,6.3,11,6.7
	c3.6,0.3,12.7,0.7,17.6,1.6c11.7,2.1,14.8,8.7,14.8,14c0,11.1-12.9,15.8-28.5,15.8c-13.2,0-22.7-4.2-26.5-6.3
	c-0.7-0.4-0.7-1.3-0.4-1.9c1-1.8,0.7-1.2,1.5-2.7c0.4-0.8,1.1-0.9,1.8-0.5c3.1,2,13,6.8,23.7,6.8c11,0,16.9-4.8,16.9-9.6
	c0-4-1.5-6.5-9.8-7.7c-4.4-0.6-14.2-0.6-19.2-1.8c-5-1.1-13.7-3.5-13.7-13.2c0-5.4,4.3-15.3,26.8-15.3c12.3,0,20.5,3.3,24.6,5.4
	c0.7,0.4,0.9,1,0.5,1.7c-0.7,1.1-0.9,1.6-1.6,2.7C354.3,309.7,353.6,309.8,353,309.5"/>
<path class="st1" d="M289.7,301h-8c-0.8,0-1.5,0.7-1.5,1.5v46c0,0.9,0.7,1.7,1.5,1.7h8c0.8,0,1.5-0.8,1.5-1.7v-46
	C291.2,301.7,290.5,301,289.7,301"/>
<path class="st1" d="M406.1,347.6c-0.7-2-0.4-1.2-1-3c-0.3-1-1.2-0.8-1.6-0.7c-3.2,1.3-7.6,2.4-10.7,2.4c-7.9,0-12.5-3.4-12.5-10.5
	v-28.6h22.2c0.9,0,1.7-0.7,1.7-1.5v-2.3c0-0.9-0.8-1.5-1.7-1.5h-22.2V290c0-1.1-1-1.5-1.7-1.2c-1.9,0.6-5.5,1.8-7.5,2.4
	c-0.7,0.2-1.4,0.8-1.4,1.9v40.1c0,10,5.8,18.1,21.5,18.1c5.5,0,10.7-1.2,14-2.2C405.7,349,406.5,348.6,406.1,347.6"/>
<path class="st1" d="M538.7,347.9c-5.6-4.3-18.2-13.8-19.7-15c8.9,0,19.4-5.1,19.4-16.3c0-12.3-12-15.7-17.6-15.7h-36.3
	c-0.8,0-1.5,0.7-1.5,1.7v45.8c0,0.9,0.7,1.7,1.5,1.7h7.7c0.8,0,1.5-0.8,1.5-1.7v-15.1h11.9c0,0,13.6,11,18.3,14.9
	c0.4,0.4,2.1,1.8,3.9,1.8h10.6C539.2,350.2,540,348.9,538.7,347.9 M493.8,328.7v-22.8h22.7c7.2,0,10.4,5.8,10.4,10.9
	c0,5.7-2.8,11.9-12,11.9H493.8z"/>
<path class="st1" d="M470.2,321.2v-0.4c0-3.1-0.8-10.2-6.8-15.1c-2.1-1.7-8.5-5.7-20.9-5.7c-10.3,0-18.1,2.6-25.7,6.6
	c-0.7,0.3-0.9,1-0.6,1.6c0.9,2,0.7,1.8,1.3,3c0.3,0.7,0.9,0.9,1.7,0.4c3.8-2.2,12.4-6.7,22.1-6.7c11.8,0,18.2,5.4,18.2,12.8v5.7
	c-4.2-1.1-12-2.8-19.9-2.8c-20.1,0-27.1,7.3-27.1,15.7c0,12.2,12.1,15.2,22.8,15.2c9.2,0,17.5-2.1,24-7h0.2c0,2.3,0,4.1,0,4.1
	c0,0.9,0.7,1.7,1.5,1.7h7.6c0.9,0,1.5-0.8,1.5-1.7V321.2z M437.4,346.5c-10.8,0-13.6-5.5-13.6-10.8c0-8.9,10.7-10.6,17.4-10.6
	c7.6,0,14.2,1.4,18.3,2.4v12.2C455.2,342.6,448.5,346.5,437.4,346.5"/>
<path class="st1" d="M604.9,321.2v-0.4c0-3.1-0.7-10.2-6.8-15.1c-2.1-1.7-8.4-5.7-20.8-5.7c-10.3,0-18.1,2.6-25.7,6.6
	c-0.7,0.3-0.8,1-0.6,1.6c0.9,2,0.7,1.8,1.3,3c0.3,0.7,0.9,0.9,1.7,0.4c3.8-2.2,12.4-6.7,22-6.7c11.8,0,18.2,5.4,18.2,12.8v5.7
	c-4.2-1.1-12-2.8-19.8-2.8c-20.2,0-27.2,7.3-27.2,15.7c0,12.2,12.1,15.2,22.9,15.2c9.2,0,17.4-2.1,24-7h0.2c0,2.3,0,4.1,0,4.1
	c0,0.9,0.7,1.7,1.6,1.7h7.6c0.8,0,1.5-0.8,1.5-1.7V321.2z M572.1,346.5c-10.8,0-13.6-5.5-13.6-10.8c0-8.9,10.7-10.6,17.4-10.6
	c7.6,0,14.1,1.4,18.3,2.4v12.2C589.8,342.6,583.1,346.5,572.1,346.5"/>
<path class="st1" d="M492.5,286.6l-1.2-3.4h-4.7l-1.2,3.4h-2.6l4.9-13.5h2.6l4.9,13.5H492.5z M489.2,277.1L489,276l-0.3,1.1l-1.4,4
	h3.3L489.2,277.1z"/>
<polygon class="st1" points="505.1,275.2 505.1,286.6 502.6,286.6 502.6,275.2 498.7,275.2 498.7,273.1 508.9,273.1 508.9,275.2 "/>
<path class="st1" d="M518.2,286.6l-1.2-3.4h-4.7l-1.2,3.4h-2.6l4.9-13.5h2.6l4.9,13.5H518.2z M515,277.1l-0.3-1.1l-0.3,1.1l-1.4,4
	h3.3L515,277.1z"/>
<polygon class="st1" points="526.9,275.2 526.9,286.6 524.4,286.6 524.4,275.2 520.5,275.2 520.5,273.1 530.8,273.1 530.8,275.2 "/>
<path class="st1" d="M540.1,286.6l-1.2-3.4h-4.7l-1.2,3.4h-2.6l4.9-13.5h2.6l4.9,13.5H540.1z M536.9,277.1l-0.3-1.1l-0.3,1.1l-1.4,4
	h3.3L536.9,277.1z"/>
<path class="st1" d="M553.1,286.9c-2.8,0-4.1-1.3-5-2.7l2.1-1.1c0.6,0.9,1.5,1.6,2.9,1.6c2.1,0,2.7-0.9,2.7-2.1
	c0-0.9-0.4-1.5-1.6-1.7l-2.8-0.5c-1.9-0.3-3.2-1.3-3.2-3.8c0-1.9,1.3-3.9,4.9-3.9c2.8,0,4,1,4.9,2.4l-2.1,1.1
	c-0.6-0.9-1.4-1.3-2.8-1.3c-1.8,0-2.4,0.7-2.4,1.7c0,1,0.3,1.3,1.3,1.4l2.7,0.4c2,0.3,3.7,1.4,3.7,4.1
	C558.3,285.1,556.8,286.9,553.1,286.9"/>
<rect x="560.4" y="273.1" class="st1" width="2.5" height="13.5"/>
<path class="st1" d="M575.2,286.6l-1.2-3.4h-4.7l-1.2,3.4h-2.6l4.9-13.5h2.6l4.9,13.5H575.2z M571.9,277.1l-0.3-1.1l-0.3,1.1l-1.4,4
	h3.3L571.9,277.1z"/>
<path class="st1" d="M586.3,286.9c-1,0-2.2-0.2-3.2-1.1l1.1-1.6c0.7,0.7,1.4,0.7,2,0.7c1.1,0,1.5-0.6,1.5-2.2v-9.5h2.5v9.5
	C590.2,285.7,588.7,286.9,586.3,286.9"/>
<polygon class="st1" points="600.2,286.6 597.7,286.6 592.8,273.1 595.5,273.1 598.7,282.6 599,283.7 599.2,282.6 602.5,273.1 
	605.1,273.1 "/>
<path class="st1" d="M620.4,300.2c1.1,0,2.1,0.3,3.2,0.8c1,0.5,1.8,1.3,2.4,2.4c0.6,1,0.9,2.1,0.9,3.2c0,1.1-0.3,2.2-0.8,3.2
	c-0.6,1-1.4,1.8-2.4,2.4c-1,0.6-2.1,0.9-3.2,0.9c-1.1,0-2.2-0.3-3.2-0.9c-1-0.6-1.8-1.4-2.4-2.4c-0.6-1-0.9-2.1-0.9-3.2
	c0-1.1,0.3-2.2,0.9-3.2c0.6-1,1.4-1.8,2.4-2.4C618.3,300.5,619.3,300.2,620.4,300.2 M620.4,301.3c-0.9,0-1.8,0.2-2.6,0.7
	c-0.9,0.5-1.5,1.1-2,2c-0.5,0.9-0.7,1.8-0.7,2.7c0,0.9,0.2,1.8,0.7,2.7c0.5,0.9,1.1,1.5,2,2c0.8,0.5,1.7,0.7,2.7,0.7
	c0.9,0,1.8-0.2,2.7-0.7c0.8-0.5,1.5-1.1,2-2c0.5-0.8,0.7-1.7,0.7-2.7c0-0.9-0.2-1.8-0.7-2.7c-0.5-0.9-1.2-1.5-2-2
	C622.2,301.5,621.3,301.3,620.4,301.3 M617.6,310.2v-6.9h2.4c0.8,0,1.4,0.1,1.8,0.2l0.9,0.7l0.3,1c0,0.5-0.2,0.9-0.5,1.3
	c-0.4,0.4-0.8,0.6-1.4,0.6l0.6,0.4c0.3,0.3,0.6,0.7,1,1.4l0.8,1.4H622l-0.6-1.1c-0.5-0.9-0.9-1.4-1.2-1.6l-0.9-0.2h-0.7v3H617.6z
	 M618.7,306.3h1.4c0.6,0,1.1-0.1,1.3-0.3l0.3-0.8l-0.2-0.6l-0.5-0.4c-0.2-0.1-0.6-0.1-1.1-0.1h-1.3V306.3z"/>
</svg>
